<svg width="19" height="41" viewBox="0 0 19 41" fill="none" xmlns="http://www.w3.org/2000/svg">
<path d="M4.13426 8.23913V13.7174H0V20.5H4.13426V40.5H12.4907V20.5H18.2083C18.5602 18.3551 18.7948 16.0942 18.912 13.7174H12.5787V9.1087C12.5787 8.76087 12.7693 8.39855 13.1505 8.02174C13.5316 7.64493 13.9568 7.45652 14.4259 7.45652H19V0.5H12.7546C11.1127 0.5 9.69059 0.746377 8.48843 1.23913C7.28627 1.73188 6.4213 2.28261 5.89352 2.8913C5.36574 3.5 4.95525 4.23913 4.66204 5.1087C4.36883 5.97826 4.20756 6.60145 4.17824 6.97826C4.14892 7.35507 4.13426 7.77536 4.13426 8.23913Z" fill="#C5C5C5"/>
</svg>
