<svg width="40" height="41" viewBox="0 0 40 41" fill="none" xmlns="http://www.w3.org/2000/svg">
<path d="M26.75 20.5C26.75 16.75 23.75 13.75 20 13.75C16.25 13.75 13.25 16.75 13.25 20.5C13.25 24.25 16.25 27.25 20 27.25C23.75 27.25 26.75 24.25 26.75 20.5ZM30.25 20.5C30.25 26.25 25.75 30.75 20 30.75C14.25 30.75 9.75 26.25 9.75 20.5C9.75 14.75 14.25 10.25 20 10.25C25.75 10.25 30.25 14.75 30.25 20.5ZM33 9.75C33 11.25 32 12.25 30.5 12.25C29 12.25 28 11.25 28 9.75C28 8.25 29 7.25 30.5 7.25C32 7.25 33 8.5 33 9.75ZM20 4C17 4 10.75 3.75 8.25 4.75C6.5 5.5 5 7 4.5 8.75C3.5 11.25 3.75 17.5 3.75 20.5C3.75 23.5 3.5 29.75 4.5 32.25C5 34 6.5 35.5 8.25 36C10.75 37 17.25 36.75 20 36.75C22.75 36.75 29.25 37 31.75 36C33.5 35.25 34.75 34 35.5 32.25C36.5 29.5 36.25 23.25 36.25 20.5C36.25 17.75 36.5 11.25 35.5 8.75C35 7 33.5 5.5 31.75 5C29.25 3.75 23 4 20 4ZM40 20.5V28.75C40 31.75 39 34.75 36.75 37.25C34.5 39.5 31.5 40.5 28.25 40.5H11.75C8.75 40.5 5.75 39.5 3.25 37.25C1.25 35 0 32 0 28.75V12.25C0 9 1.25 6 3.25 3.75C5.75 1.75 8.75 0.5 11.75 0.5H28.25C31.25 0.5 34.25 1.5 36.75 3.75C38.75 6 40 9 40 12.25V20.5Z" fill="#C5C5C5"/>
</svg>
