<svg width="51" height="56" viewBox="0 0 51 56" fill="none" xmlns="http://www.w3.org/2000/svg">
<path d="M41.1667 54.2222C43.2442 54.2222 45.2366 53.3969 46.7057 51.9279C48.1747 50.4588 49 48.4664 49 46.3889C49 44.3113 48.1747 42.3189 46.7057 40.8499C45.2366 39.3808 43.2442 38.5555 41.1667 38.5555C39.0891 38.5555 37.0967 39.3808 35.6277 40.8499C34.1586 42.3189 33.3333 44.3113 33.3333 46.3889C33.3333 48.4664 34.1586 50.4588 35.6277 51.9279C37.0967 53.3969 39.0891 54.2222 41.1667 54.2222ZM41.1667 17.6667C43.2442 17.6667 45.2366 16.8414 46.7057 15.3723C48.1747 13.9033 49 11.9109 49 9.83333C49 7.7558 48.1747 5.76336 46.7057 4.29433C45.2366 2.8253 43.2442 2 41.1667 2C39.0891 2 37.0967 2.8253 35.6277 4.29433C34.1586 5.76336 33.3333 7.7558 33.3333 9.83333C33.3333 11.9109 34.1586 13.9033 35.6277 15.3723C37.0967 16.8414 39.0891 17.6667 41.1667 17.6667ZM9.83333 35.9444C11.9109 35.9444 13.9033 35.1191 15.3723 33.6501C16.8414 32.1811 17.6667 30.1886 17.6667 28.1111C17.6667 26.0336 16.8414 24.0411 15.3723 22.5721C13.9033 21.1031 11.9109 20.2778 9.83333 20.2778C7.7558 20.2778 5.76337 21.1031 4.29433 22.5721C2.8253 24.0411 2 26.0336 2 28.1111C2 30.1886 2.8253 32.1811 4.29433 33.6501C5.76337 35.1191 7.7558 35.9444 9.83333 35.9444V35.9444Z" stroke="#939393" stroke-width="3" stroke-linecap="round" stroke-linejoin="round"/>
</svg>
