<svg width="50" height="56" viewBox="0 0 50 56" fill="none" xmlns="http://www.w3.org/2000/svg">
<path d="M40.6662 54.2222C42.7437 54.2222 44.7361 53.3969 46.2052 51.9279C47.6742 50.4588 48.4995 48.4664 48.4995 46.3889C48.4995 44.3113 47.6742 42.3189 46.2052 40.8499C44.7361 39.3808 42.7437 38.5555 40.6662 38.5555C38.5886 38.5555 36.5962 39.3808 35.1272 40.8499C33.6581 42.3189 32.8328 44.3113 32.8328 46.3889C32.8328 48.4664 33.6581 50.4588 35.1272 51.9279C36.5962 53.3969 38.5886 54.2222 40.6662 54.2222ZM40.6662 17.6667C42.7437 17.6667 44.7361 16.8414 46.2052 15.3723C47.6742 13.9033 48.4995 11.9109 48.4995 9.83333C48.4995 7.7558 47.6742 5.76336 46.2052 4.29433C44.7361 2.8253 42.7437 2 40.6662 2C38.5886 2 36.5962 2.8253 35.1272 4.29433C33.6581 5.76336 32.8328 7.7558 32.8328 9.83333C32.8328 11.9109 33.6581 13.9033 35.1272 15.3723C36.5962 16.8414 38.5886 17.6667 40.6662 17.6667ZM9.33285 35.9444C11.4104 35.9444 13.4028 35.1191 14.8718 33.6501C16.3409 32.1811 17.1662 30.1886 17.1662 28.1111C17.1662 26.0336 16.3409 24.0411 14.8718 22.5721C13.4028 21.1031 11.4104 20.2778 9.33285 20.2778C7.25532 20.2778 5.26288 21.1031 3.79384 22.5721C2.32481 24.0411 1.49951 26.0336 1.49951 28.1111C1.49951 30.1886 2.32481 32.1811 3.79384 33.6501C5.26288 35.1191 7.25532 35.9444 9.33285 35.9444V35.9444Z" stroke="#939393" stroke-width="3" stroke-linecap="round" stroke-linejoin="round"/>
<path d="M34.1364 13.75L15.8586 24.1944M15.8586 32.0278L34.1364 42.4722" stroke="#939393" stroke-width="3"/>
</svg>
