<svg width="54" height="55" viewBox="0 0 54 55" fill="none" xmlns="http://www.w3.org/2000/svg">
<path d="M38.2559 8.0625H15.7559C9.00586 8.0625 4.50586 11.4375 4.50586 19.3125V35.0625C4.50586 42.9375 9.00586 46.3125 15.7559 46.3125H38.2559C45.0059 46.3125 49.5059 42.9375 49.5059 35.0625V19.3125C49.5059 11.4375 45.0059 8.0625 38.2559 8.0625ZM39.3134 21.765L32.2709 27.39C30.7859 28.5825 28.8959 29.1675 27.0059 29.1675C25.1159 29.1675 23.2034 28.5825 21.7409 27.39L14.6984 21.765C13.9784 21.18 13.8659 20.1 14.4284 19.38C15.0134 18.66 16.0709 18.525 16.7909 19.11L23.8334 24.735C25.5434 26.1075 28.4459 26.1075 30.1559 24.735L37.1984 19.11C37.9184 18.525 38.9984 18.6375 39.5609 19.38C40.1459 20.1 40.0334 21.18 39.3134 21.765Z" fill="#939393"/>
</svg>
