<svg width="45" height="46" viewBox="0 0 45 46" fill="none" xmlns="http://www.w3.org/2000/svg">
<path d="M44.9688 21.361C44.2038 8.31099 32.3463 -1.74649 18.6888 0.503513C9.28383 2.05601 1.74634 9.68347 0.283842 19.0885C-0.571158 24.5335 0.553891 29.686 3.00639 33.9385L1.00386 41.386C0.553859 43.0735 2.10631 44.6035 3.77131 44.131L11.1063 42.106C14.4363 44.0635 18.3288 45.1885 22.4913 45.1885C35.1813 45.1885 45.7113 34.006 44.9688 21.361ZM33.4939 31.0585C33.2914 31.4635 33.0438 31.846 32.7288 32.206C32.1663 32.8135 31.5588 33.2635 30.8838 33.5335C30.2088 33.826 29.4663 33.961 28.6788 33.961C27.5313 33.961 26.2938 33.691 25.0113 33.1285C23.7063 32.566 22.4239 31.8235 21.1414 30.901C19.8364 29.956 18.6214 28.8985 17.4514 27.751C16.2814 26.581 15.2463 25.3434 14.3013 24.0609C13.3788 22.7784 12.6363 21.496 12.0963 20.2135C11.5563 18.931 11.2864 17.6935 11.2864 16.5235C11.2864 15.7585 11.4214 15.016 11.6914 14.341C11.9614 13.6435 12.3889 13.0135 12.9964 12.451C13.7164 11.731 14.5038 11.3935 15.3363 11.3935C15.6513 11.3935 15.9663 11.461 16.2588 11.596C16.5513 11.731 16.8213 11.9335 17.0238 12.226L19.6338 15.916C19.8363 16.2085 19.9938 16.456 20.0838 16.7035C20.1963 16.951 20.2413 17.176 20.2413 17.401C20.2413 17.671 20.1514 17.941 19.9939 18.211C19.8364 18.481 19.6338 18.751 19.3638 19.021L18.5088 19.921C18.3738 20.056 18.3289 20.191 18.3289 20.371C18.3289 20.461 18.3513 20.551 18.3738 20.641C18.4188 20.731 18.4414 20.7985 18.4639 20.866C18.6664 21.2485 19.0263 21.721 19.5213 22.306C20.0388 22.891 20.5789 23.4985 21.1639 24.0835C21.7714 24.691 22.3564 25.2309 22.9639 25.7484C23.5489 26.2434 24.0438 26.581 24.4263 26.7835C24.4938 26.806 24.5614 26.8509 24.6289 26.8734C24.7189 26.9184 24.8089 26.9185 24.9214 26.9185C25.1239 26.9185 25.2589 26.851 25.3939 26.716L26.2488 25.861C26.5413 25.5685 26.8114 25.366 27.0589 25.231C27.3289 25.0735 27.5764 24.9835 27.8689 24.9835C28.0939 24.9835 28.3189 25.0285 28.5664 25.141C28.8139 25.2535 29.0838 25.3885 29.3538 25.591L33.0889 28.246C33.3814 28.4485 33.5838 28.696 33.7188 28.966C33.8313 29.2585 33.8988 29.5285 33.8988 29.8435C33.7638 30.226 33.6739 30.6535 33.4939 31.0585Z" fill="#939393"/>
</svg>
